<svg xmlns="http://www.w3.org/2000/svg" width="24" height="24" viewBox="0 0 24 24"><defs><style>.a{fill:none;}.b{fill:#2eb1e5;}</style></defs><rect class="a" width="24" height="24"/><rect class="a" width="24" height="24"/><path class="b" d="M17,11V5a2.006,2.006,0,0,0-2-2H9A2.006,2.006,0,0,0,7,5V7H5A2.006,2.006,0,0,0,3,9V19a2.006,2.006,0,0,0,2,2h5a1,1,0,0,0,1-1V17h2v3a1,1,0,0,0,1,1h5a2.006,2.006,0,0,0,2-2V13a2.006,2.006,0,0,0-2-2ZM7,19H5V17H7Zm0-4H5V13H7Zm0-4H5V9H7Zm4,4H9V13h2Zm0-4H9V9h2Zm0-4H9V5h2Zm4,8H13V13h2Zm0-4H13V9h2Zm0-4H13V5h2Zm4,12H17V17h2Zm0-4H17V13h2Z"/></svg>