<svg xmlns="http://www.w3.org/2000/svg" width="21.189" height="20" viewBox="0 0 21.189 20"><defs><style>.a{fill:#2eb1e5;}</style></defs><path class="a" d="M4.37,3.55A3,3,0,0,1,7,2a1.027,1.027,0,0,0,.89-.53A.918.918,0,0,1,8.73,1a1,1,0,0,1,.9,1.45A3,3,0,0,1,7,4a1.027,1.027,0,0,0-.89.53A.918.918,0,0,1,5.27,5,1,1,0,0,1,4.37,3.55Zm18.02,8.64a1,1,0,0,1-1.4.19L20,11.62V20a1,1,0,0,1-1,1H5a1,1,0,0,1-1-1V11.62l-.99.76A1,1,0,1,1,1.8,10.79L4,9.11V7A1,1,0,0,1,6,7v.58l5.39-4.12a1,1,0,0,1,1.21,0l9.6,7.33A1,1,0,0,1,22.39,12.19ZM10.06,7h3.89L12,5.52ZM6,10.1V11H18v-.9L16.56,9H7.44ZM6,13v2H18V13Zm12,6V17H6v2Z" transform="translate(-1.407 -1)"/></svg>