<svg xmlns="http://www.w3.org/2000/svg" width="18.097" height="16.124" viewBox="0 0 18.097 16.124">
    <g>
        <g>
            <path d="M2.634 46.66H1.352l.907-.918a3.12 3.12 0 0 0 .876-1.836 6.973 6.973 0 0 1-2.708-3.24A6.417 6.417 0 0 1 .245 36.6a7.959 7.959 0 0 1 3.015-4.259 9.769 9.769 0 0 1 5.819-1.805 9.684 9.684 0 0 1 6.726 2.32 7.026 7.026 0 0 1 1.716 7.977 7.162 7.162 0 0 1-1.721 2.423 9.662 9.662 0 0 1-6.722 2.329 12.1 12.1 0 0 1-3.042-.392 4.725 4.725 0 0 1-3.4 1.467zm6.445-15.049c-4.392 0-7.087 2.651-7.81 5.277a5.436 5.436 0 0 0 2.693 6.275l.265.162-.008.313a4.274 4.274 0 0 1-.423 1.754A3.762 3.762 0 0 0 5.46 44.24l.225-.268.333.1a10.867 10.867 0 0 0 3.062.439c5.466 0 7.956-3.349 7.956-6.461a5.943 5.943 0 0 0-1.947-4.4 8.657 8.657 0 0 0-6.009-2.038z" transform="translate(0 -30.536) translate(0 30.536) translate(0 -30.536)"/>
        </g>
    </g>
</svg>
