<svg xmlns="http://www.w3.org/2000/svg" width="50.219" height="53.161" viewBox="0 0 50.219 53.161"><defs><style>.a{fill:#2eb1e5;}</style></defs><path class="a" d="M47.2,2H7.022a5.17,5.17,0,0,0-5,5.316L2,55.161,12.044,44.529H47.2a5.191,5.191,0,0,0,5.022-5.316V7.316A5.191,5.191,0,0,0,47.2,2ZM14.555,20.606h25.11a2.662,2.662,0,0,1,0,5.316H14.555a2.662,2.662,0,0,1,0-5.316ZM29.621,33.9H14.555a2.662,2.662,0,0,1,0-5.316H29.621a2.662,2.662,0,0,1,0,5.316ZM39.665,17.948H14.555a2.662,2.662,0,0,1,0-5.316h25.11a2.662,2.662,0,0,1,0,5.316Z" transform="translate(-2 -2)"/></svg>