<svg xmlns="http://www.w3.org/2000/svg" width="19.287" height="17.494" viewBox="0 0 19.287 17.494">
    <path fill="#0a2732" d="M13.664 22.543a5.562 5.562 0 0 0-2.555.613 5.666 5.666 0 0 0-1.466 1.081 5.667 5.667 0 0 0-1.466-1.081 5.562 5.562 0 0 0-2.555-.613A5.629 5.629 0 0 0 0 28.166c0 2.2 1.16 4.528 3.447 6.932a33.33 33.33 0 0 0 5.873 4.73l.324.209.324-.209A33.33 33.33 0 0 0 15.84 35.1c2.287-2.4 3.447-4.736 3.447-6.932a5.629 5.629 0 0 0-5.623-5.625zm1.311 11.732a31.547 31.547 0 0 1-5.332 4.339 31.547 31.547 0 0 1-5.332-4.339c-2.069-2.175-3.118-4.23-3.118-6.11a4.43 4.43 0 0 1 7.974-2.657l.477.635.477-.635a4.43 4.43 0 0 1 7.974 2.657c-.001 1.88-1.05 3.935-3.119 6.11z" transform="translate(0 -22.543)"/>
</svg>
